<?xml version="1.0" encoding="utf-8"?>
<!-- Generator: Adobe Illustrator 30.0.0, SVG Export Plug-In . SVG Version: 9.03 Build 0)  -->
<svg version="1.0" id="Livello_1" xmlns="http://www.w3.org/2000/svg" xmlns:xlink="http://www.w3.org/1999/xlink" x="0px" y="0px"
	 viewBox="0 0 566.93 566.93" style="enable-background:new 0 0 566.93 566.93;" xml:space="preserve">
<style type="text/css">
	.st0{fill:#5B63AA;}
	.st1{fill:#673E8E;}
</style>
<g>
	<g>
		<path class="st0" d="M376.24,221.44v44.07c0,1.77-3.78,5.18-5.86,4.84l-70.82-0.01c-3.47-0.26-6.67-2.31-8.64-5.12
			c-0.43-0.61-2.33-4.4-2.33-4.81v-38.98c1.06-0.1,1.8,0.68,2.56,1.26c11.61,8.9,22.53,22.74,34.4,31.33
			c4.24,3.07,7.98,3.54,12.73,1.03c7.71-6.89,15.56-13.65,23.19-20.63c3.78-3.46,8.35-8.77,12.21-11.74
			C374.44,222.12,375.18,221.34,376.24,221.44z"/>
		<path class="st0" d="M372.16,212.78c0.11,1.1-0.31,2-1.01,2.81c-2.4,2.76-7.11,6.19-9.96,8.89c-8.56,8.12-16.9,16.33-25.69,24.18
			c-3.4-0.26-4.37,0.94-7.41-1.24c-5.33-3.83-12.96-11.77-18.1-16.55c-4.73-4.4-12.4-10.68-16.31-15.28
			c-0.69-0.81-1.6-1.64-1.52-2.81H372.16z"/>
	</g>
</g>
<g>
	<g>
		<path class="st0" d="M423.15,303.88c0.55,0.47,0.25,5.35,2.45,6.24c0.52,0.21,5.86,1.41,6.17,1.33c1.44-0.37,2.32-3.28,5.23-3.11
			c0.95,0.05,4.93,2.22,5.52,2.9c2.08,2.38-3.55,11.17-6.1,11.23c-0.59,0.01-8.26-4.2-10.63-4.82
			c-25.16-6.59-45.01,21.03-31.86,43.44c0.99,1.69,6.08,7.42,6.03,7.92c-0.12,1.25-2.91,4.1-3.48,5.6c-1.92,0.58-3.8-4.57-5.89-5.07
			c-1.69-0.41-4.3,1.76-5.98,0.9c-0.63-0.32-3.82-5.86-3.84-6.46c-0.1-2.65,3.46-3.55,3.77-4.61c0.12-0.42-1.38-5.9-1.71-6.49
			c-1.28-2.33-3.9-1.21-5.32-2.4c-0.92-0.78-0.98-7.76-0.34-8.72c0.68-1.03,4.59-1.16,5.35-2.06c0.21-0.24,1.95-5.77,1.96-6.09
			c0.04-3.18-6.12-1.64-1.91-8.99c3.21-5.6,2.61-2.31,6.95-2.16c1.35,0.05,5.3-3.47,5.67-4.45c1.1-2.91-4.34-5.91,3.31-8.97
			c5.56-2.22,5.27,2.66,8.19,2.36c0.41-0.04,5.7-1.55,5.92-1.76c1.08-1.07,1.31-5.47,1.65-5.75
			C414.6,303.59,422.81,303.59,423.15,303.88z"/>
		<path class="st1" d="M443.79,319.26c0.36,0.3,1.21,3.32,3.04,3.76c2.2,0.53,4.13-2.67,6.66-0.26c0.79,0.76,2.6,4.69,2.59,5.84
			c-0.02,2.52-2.86,3.23-3.03,4.47c-0.05,0.37,1.21,5.41,1.49,5.97c0.97,1.99,5.31,1.37,5.9,3.14c0.23,0.69,0.36,8.26,0.06,8.57
			c-0.2,0.21-4.53,0.34-5.61,1.46c-0.37,0.38-1.76,5.5-1.79,6.25c-0.1,2.12,4.48,2.68,3.3,6.5c-0.11,0.35-2.68,4.61-2.91,4.83
			c-2.28,2.18-4.15-0.21-6.28-0.21c-1.26,0-4.51,4.2-4.7,5.36c-0.29,1.75,1.26,4.9,0.56,5.99c-0.2,0.31-6.24,3.3-6.68,3.29
			c-1.51-0.03-2.67-2.95-5.18-3.2c-0.78-0.08-5.46,0.95-6.25,1.27c-0.95,0.38-1.33,5.63-2.13,5.84c-1.9-0.42-7.4,0.59-8.66-0.32
			c-1.01-0.73-0.6-4.59-1.39-5.37c-0.21-0.21-5.1-1.59-5.77-1.66c-3.3-0.37-3.99,3.39-5.97,3.44c-1.25,0.03-5.67-3.09-6.7-4.17
			c0-0.7,7.16-8.34,8.11-8.6c1.7-0.46,8.99,3.33,12.15,3.7c23.23,2.72,40.17-20.55,30.3-41.88c-0.85-1.83-5.61-8.03-5.61-8.54
			c0-0.49,2.69-4.57,3.17-5.07C442.88,319.22,443.36,318.9,443.79,319.26z"/>
		<path class="st0" d="M423.21,344.34c-0.53,3.04-0.26,6.97-5.3,6.32c-4.05-0.53-2.94-2.62-4.33-4.73
			c-1.78-2.71-6.57-5.04-8.72-7.36c-1.85-2.01-0.79-3.78,1.78-3.1c5.13,1.35,5.99,8.01,13.99,6.31c0.03-0.01,0.21,0.51,0.63,0.32
			c1.17-0.52,4.25-4.38,5.68-5.39c0.42-0.29,1.2-1.52,2.05-0.72C430.08,337.01,423.57,342.32,423.21,344.34z M418.5,344.45
			c-2.6,0.71-1.92,4,1.11,3.06C421.44,346.93,420.83,343.81,418.5,344.45z"/>
		<path class="st1" d="M420.64,341.77c3.74-3.18,6.89-7.11,10.63-10.28c2.03-1.72,7.45-6.03,4.52-0.63l-12.57,13.48
			c0.35-2.02,6.87-7.33,5.79-8.36c-0.85-0.8-1.64,0.43-2.05,0.72c-1.43,1.01-4.51,4.87-5.68,5.39
			C420.85,342.28,420.67,341.76,420.64,341.77z"/>
		<path class="st1" d="M400.05,347.56l-7.73,0.01l0-3.22C395.61,344.73,400.85,342.65,400.05,347.56z"/>
		
			<rect x="438" y="344.34" transform="matrix(1 -1.101314e-03 1.101314e-03 1 -0.3807 0.4865)" class="st1" width="7.09" height="3.23"/>
		<rect x="417.41" y="319.25" class="st1" width="2.59" height="7.09"/>
		<rect x="417.41" y="365.57" class="st1" width="2.59" height="7.09"/>
		<path class="st1" d="M404.56,323.12c1.28-1.15,4.84,1.81,4.5,3.52C408.33,330.36,403.53,324.04,404.56,323.12z"/>
		<path class="st1" d="M395.55,359.78c-1-2.62,4.63-5.24,5.14-2.88C401.02,358.41,396.04,360.28,395.55,359.78z"/>
		<path class="st1" d="M404.56,369.43c-0.49-0.49,1.37-5.47,2.88-5.14C409.8,364.8,407.17,370.43,404.56,369.43z"/>
		<path class="st1" d="M429,364.29c1.54-1.59,5.33,4.62,2.88,5.14C430.03,369.6,428.28,365.04,429,364.29z"/>
		<path class="st1" d="M400.69,334.06c1.87,2.7-5.74,1.89-5.14-0.97C395.95,331.17,400.53,333.83,400.69,334.06z"/>
		<path class="st1" d="M440.37,332.21c4.15-0.59-2.33,6.79-3.65,2.17C436.77,334.17,440.11,332.25,440.37,332.21z"/>
		
			<rect x="438.11" y="355.26" transform="matrix(0.4589 -0.8885 0.8885 0.4589 -80.2511 583.9362)" class="st1" width="2.37" height="5.19"/>
		<path class="st1" d="M432.21,323.12c0.98,0.98-1.62,6.08-3.21,4.5C428.02,326.64,430.62,321.53,432.21,323.12z"/>
	</g>
</g>
<g>
	<g>
		<path class="st1" d="M293.23,382.38c-3.49,33.05-47.7,38.86-67.57,17.18c-0.1-0.6,6.76-8.5,7.81-9.32
			c5.17-4.05,4.84-0.96,9.2,1.38c15.71,8.44,32.78,3.77,31.02-16.38c-13.11,13.02-36.12,8.48-45.68-6.53
			c-6.29-9.88-7.26-23.52-3.17-34.43c7.52-20.04,33.67-27.94,49.6-12.38c0.26-0.84-0.33-6.76,0.01-6.76h18.78V382.38z
			 M275.23,348.46c0-9.51-7.71-17.22-17.22-17.22c-9.51,0-17.22,7.71-17.22,17.22s7.71,17.22,17.22,17.22
			C267.52,365.68,275.23,357.97,275.23,348.46z"/>
		<path class="st1" d="M214.34,288.08v95.42h-18.78c-0.34,0,0-5.67-0.76-6.76c-17.81,16.94-45.24,5.95-51.3-16.7
			c-8.6-32.21,23.65-61.21,51.3-38.15v-33.81H214.34z M174.32,331.09c-17.38,2.95-17.49,33.32,0.75,36.46
			C200.77,371.96,202.31,326.33,174.32,331.09z"/>
		<path class="st1" d="M56.55,355.71v27.8H37.01v-51.47l18.78-22.17H38.14c-3.59-5.23-4.11-12.18-6.39-18.03h48.46
			c0.37,0,6.01,1.77,6.91,2.11c24.93,9.54,25.91,46.46,2.39,58.28c-1.93,0.97-8.26,3.48-10.05,3.48H56.55z M56.55,337.67h19.16
			c1.36,0,6.39-3.28,7.47-4.55c5.1-5.98,3.96-16.19-2.33-20.87c-0.71-0.53-3.85-2.37-4.39-2.37H56.55V337.67z"/>
		<path class="st1" d="M320.28,355.71c3.1,11.3,15.52,15.37,25.96,11.31c2.6-1.01,7.31-5.61,8.83-5.22
			c1.2,0.31,10.6,9.94,10.22,11.42c-0.92,3.51-11.51,8.82-14.98,9.88c-28.9,8.88-56.07-13.37-48.15-43.64
			c8.91-34.05,58.37-34.65,66.48-0.92c0.58,2.41,2.67,17.17,0.11,17.17H320.28z M351.09,342.18c-2.91-17.19-27.9-17.19-30.81,0
			H351.09z"/>
		<path class="st1" d="M535.18,383.51h-19.54v-42.45c0-0.33-1.95-4.48-2.38-5.14c-5-7.67-17.87-6.18-22.31,1.49
			c-0.46,0.8-2.36,6.13-2.36,6.65v39.45h-18.41c-0.08,0-1.13-1.05-1.13-1.13v-67.25h19.54c0.38,0-0.28,6.64,0.01,7.51
			c13.42-14.13,38.63-11.62,44.86,8.11c0.39,1.25,1.72,6.43,1.72,7.29V383.51z"/>
		<rect x="114.4" y="315.13" class="st1" width="19.54" height="68.38"/>
		<circle class="st1" cx="124.1" cy="297.28" r="11.3"/>
	</g>
</g>
<path class="st0" d="M279.68,301.95c3.1,0.66,3.68,5.41-1.07,6.07c-5.55,0.77-23.37,0.73-29.01,0.06c-0.9-0.11-3.13-0.82-3.56-1.53
	c-0.61-1-0.35-3.73,0.89-4.25c3.35-1.42,12.57,0.91,15.54-1.5c1.66-1.34,6.79-12.19,6.28-14.29c-18.1-7.47-35.73-18.09-41.55-38.05
	c-5.47-18.79,2.14-34.86,5.7-52.89c1.89-9.58,1.62-18.75,6.87-27.26c11.1-17.99,38.62-18.69,49.23,0.01
	c1.56,2.75,2.31,6.38,3.95,8.78c2.06,3.01,12.32,10.71,12.46,13.07c0.23,4-8.21,2.54-10.9,2.82c-8.97,0.92-13.44,8.64-14.09,16.99
	c-1.2,15.42,0.95,32.35,0,47.93c1.15,13.5,10.5,18.13,21.95,21.87l18.34,20.38c1.06,2.84,1.1,3.98-2.08,3.1
	c-7.74-2.13-17.84-11.09-25.83-13.91c-3.72,0.31-11.86-1.15-14.88,0.68c-1.59,0.96-6.32,8.55-6.58,10.27
	c-0.1,0.64,0.16,1.67,0.68,1.67C274.08,301.95,277.98,301.59,279.68,301.95z M277.46,180.05c0-3.87-3.14-7.01-7.01-7.01
	s-7.01,3.14-7.01,7.01s3.14,7.01,7.01,7.01S277.46,183.92,277.46,180.05z"/>
</svg>

