<?xml version="1.0" encoding="utf-8"?>
<!-- Generator: Adobe Illustrator 30.0.0, SVG Export Plug-In . SVG Version: 9.03 Build 0)  -->
<svg version="1.0" id="Livello_1" xmlns="http://www.w3.org/2000/svg" xmlns:xlink="http://www.w3.org/1999/xlink" x="0px" y="0px"
	 viewBox="31.7 5.4 504.33 128.71" style="enable-background:new 0 0 566.93 140.51;" xml:space="preserve">
<style type="text/css">
	.st0{fill:#5A5DDC;}
	.st1{fill:#BDBEF1;}
</style>
<g>
	<g>
		<path class="st0" d="M293.6,102.88c-3.12,29.54-37.66,36.66-60.1,23.43c-2.53-1.49-8.58-4.77-6.55-7.75
			c1.61-2.36,8.33-9.91,11.05-9.92c0.62,0,6.32,4.17,8.19,4.99c14.89,6.49,30.49-0.02,27.59-17.85c-11.03,11.93-31.5,9-41.93-2.24
			c-11.19-12.06-11.83-34.37-1.5-47.17c10.97-13.59,31.77-16.58,44.54-3.73c0.26-0.84-0.33-6.74,0.01-6.74h18.71v66.98L293.6,102.88
			L293.6,102.88z M275.64,69.07c0-9.47-7.68-17.14-17.14-17.14c-9.47,0-17.14,7.68-17.14,17.14s7.68,17.14,17.14,17.14
			C267.96,86.21,275.64,78.54,275.64,69.07z"/>
		<path class="st0" d="M214.27,104H196.3c-0.37,0,0.28-6.61-0.01-7.48c-21.56,20.07-51.63,3.58-53.16-24.3
			c-1.61-29.27,28.64-50,52.42-29.6V8.94h17.59c0.08,0,1.12,1.04,1.12,1.12V104L214.27,104L214.27,104z M175.15,51.79
			c-18.99,3.28-16.95,38.75,5.73,36.41C202.3,85.99,200.46,47.41,175.15,51.79z"/>
		<path class="st0" d="M58.58,76.3v27.69H38.37V52.72l18.71-22.08H39.5c-2.05,0-5.17-15.4-6.36-17.96h49.03
			c1.27,0,8.2,2.89,9.75,3.72c21.44,11.58,20.96,45.32-0.63,56.29c-1.57,0.8-8.64,3.6-9.87,3.6L58.58,76.3L58.58,76.3z M57.84,58.34
			h19.83c0.28,0,4.27-2.25,4.82-2.67c7.34-5.54,6.91-17.33-0.33-22.78c-0.55-0.42-3.52-2.25-3.74-2.25H57.84V58.34z"/>
		<path class="st0" d="M320.55,76.3c4.89,15.7,23.18,15.72,34.05,5.96c1.12-0.01,10.88,9.66,10.88,10.88
			c0,3.66-11.81,9.44-15.03,10.45c-30.17,9.43-57.57-15.62-47.14-46.4c10.23-30.19,55.54-30.8,64.93,0.24
			c0.33,1.08,1.71,5.95,1.71,6.52v11.23c0,0.08-1.04,1.12-1.12,1.12L320.55,76.3L320.55,76.3z M351.24,62.83
			c-2.97-17.14-27.74-17.13-30.69,0H351.24z"/>
		<path class="st0" d="M534.61,104h-19.46V62.46c0-0.4-1.46-4.23-1.82-4.91c-3.66-6.83-13.14-7.19-19.27-3.65
			c-2.5,1.44-5.85,8.7-5.85,11.56v38.55h-19.46V35.9h19.46c0.37,0-0.28,6.61,0.01,7.48c13.45-14.75,39.71-11.14,45.13,9.13
			c0.25,0.95,1.27,4.99,1.27,5.46V104L534.61,104L534.61,104z"/>
		<path class="st0" d="M461.53,66.37c0,23.71-19.22,42.94-42.94,42.94s-42.94-19.22-42.94-42.94s19.22-42.94,42.94-42.94
			S461.53,42.66,461.53,66.37z M453.09,66.34c0-19.06-15.45-34.51-34.51-34.51s-34.51,15.45-34.51,34.51s15.45,34.51,34.51,34.51
			C437.64,100.84,453.09,85.39,453.09,66.34z"/>
		<rect x="115.47" y="35.89" class="st0" width="19.46" height="68.11"/>
		<circle class="st0" cx="125.16" cy="18.11" r="11.27"/>
		<path class="st1" d="M453.09,66.34c0,19.06-15.45,34.51-34.51,34.51s-34.51-15.45-34.51-34.51s15.45-34.51,34.51-34.51
			C437.64,31.83,453.09,47.28,453.09,66.34z M416.36,38.13c-12.05-0.57-25.58,12.48-26.21,24.33c-0.08,1.57-0.01,0.96,1.11,1.12
			c3.05,0.43,7.94-0.97,6.27,4.01c-0.97,2.9-7.54-0.42-7.39,2.35c0.69,12.82,13.69,24.16,26.2,25.08c-1.84-3.74,2.56-12.17,4.34-6.2
			c0.58,1.95-0.91,6.33,1.27,6.21c12.37-0.67,24.66-13.85,25.08-26.2c-10.61,1.44-10.42-6.26,0.01-5.63
			c-1.63-13.24-12.31-25.04-26.21-25.07C422.4,48.5,414.79,48.49,416.36,38.13z"/>
		<path class="st0" d="M437.31,47.87c2.43,2.44-11.31,14.08-12.76,16.8c-1.33,2.51-0.72,6.25-5.01,7.03c-5.47,1-5.46-4.2-6.88-7.05
			c-1.29-2.59-11.36-10.04-7.59-12.71c4.03-2.85,8.74,9.69,14.61,8.66C423.27,59.97,434.55,45.1,437.31,47.87z"/>
	</g>
</g>
</svg>
