<?xml version="1.0" encoding="utf-8"?>
<!-- Generator: Adobe Illustrator 30.0.0, SVG Export Plug-In . SVG Version: 9.03 Build 0)  -->
<svg version="1.0" id="Livello_1" xmlns="http://www.w3.org/2000/svg" xmlns:xlink="http://www.w3.org/1999/xlink" x="0px" y="0px"
	 viewBox="0 0 566.93 271.4" style="enable-background:new 0 0 566.93 271.4;" xml:space="preserve">
<style type="text/css">
	.st0{fill:#673E8E;}
	.st1{fill:#C2B2D2;}
</style>
<g>
	<g>
		<path class="st0" d="M376.24,72.79v44.07c0,1.77-3.78,5.18-5.86,4.84l-70.82-0.01c-3.47-0.26-6.67-2.31-8.64-5.12
			c-0.43-0.61-2.33-4.4-2.33-4.81V72.78c1.06-0.1,1.8,0.68,2.56,1.26c11.61,8.9,22.53,22.74,34.4,31.33
			c4.24,3.07,7.98,3.54,12.73,1.03c7.71-6.89,15.56-13.65,23.19-20.63c3.78-3.46,8.35-8.77,12.21-11.74
			C374.44,73.47,375.18,72.69,376.24,72.79z"/>
		<path class="st0" d="M372.16,64.13c0.11,1.1-0.31,2-1.01,2.81c-2.4,2.76-7.11,6.19-9.96,8.89c-8.56,8.12-16.9,16.33-25.69,24.18
			c-3.4-0.26-4.37,0.94-7.41-1.24c-5.33-3.83-12.96-11.77-18.1-16.55c-4.73-4.4-12.4-10.68-16.31-15.28
			c-0.69-0.81-1.6-1.64-1.52-2.81C292.16,64.13,372.16,64.13,372.16,64.13z"/>
	</g>
</g>
<path class="st0" d="M279.68,153.3c3.1,0.66,3.68,5.41-1.07,6.07c-5.55,0.77-23.37,0.73-29.01,0.06c-0.9-0.11-3.13-0.82-3.56-1.53
	c-0.61-1-0.35-3.73,0.89-4.25c3.35-1.42,12.57,0.91,15.54-1.5c1.66-1.34,6.79-12.19,6.28-14.29c-18.1-7.47-35.73-18.09-41.55-38.05
	c-5.47-18.79,2.14-34.86,5.7-52.89c1.89-9.58,1.62-18.75,6.87-27.26c11.1-17.99,38.62-18.69,49.23,0.01
	c1.56,2.75,2.31,6.38,3.95,8.78c2.06,3.01,12.32,10.71,12.46,13.07c0.23,4-8.21,2.54-10.9,2.82c-8.97,0.92-13.44,8.64-14.09,16.99
	c-1.2,15.42,0.95,32.35,0,47.93c1.15,13.5,10.5,18.13,21.95,21.87l18.34,20.38c1.06,2.84,1.1,3.98-2.08,3.1
	c-7.74-2.13-17.84-11.09-25.83-13.91c-3.72,0.31-11.86-1.15-14.88,0.68c-1.59,0.96-6.32,8.55-6.58,10.27
	c-0.1,0.64,0.16,1.67,0.68,1.67C274.08,153.3,277.98,152.94,279.68,153.3z M277.46,31.4c0-3.87-3.14-7.01-7.01-7.01
	s-7.01,3.14-7.01,7.01s3.14,7.01,7.01,7.01S277.46,35.27,277.46,31.4z"/>
<g>
	<g>
		<path class="st0" d="M293.6,233.77c-3.12,29.54-37.66,36.66-60.1,23.43c-2.53-1.49-8.58-4.77-6.55-7.75
			c1.61-2.36,8.33-9.91,11.05-9.92c0.62,0,6.32,4.17,8.19,4.99c14.89,6.49,30.49-0.02,27.59-17.85c-11.03,11.93-31.5,9-41.93-2.24
			c-11.19-12.06-11.83-34.37-1.5-47.17c10.97-13.59,31.77-16.58,44.54-3.73c0.26-0.84-0.33-6.74,0.01-6.74h18.71v66.98H293.6z
			 M275.64,199.96c0-9.47-7.68-17.14-17.14-17.14c-9.47,0-17.14,7.68-17.14,17.14s7.68,17.14,17.14,17.14
			C267.96,217.1,275.64,209.43,275.64,199.96z"/>
		<path class="st0" d="M214.27,234.89H196.3c-0.37,0,0.28-6.61-0.01-7.48c-21.56,20.07-51.63,3.58-53.16-24.3
			c-1.61-29.27,28.64-50,52.42-29.6v-33.68h17.59c0.08,0,1.12,1.04,1.12,1.12v93.94H214.27z M175.15,182.68
			c-18.99,3.28-16.95,38.75,5.73,36.41C202.3,216.88,200.46,178.3,175.15,182.68z"/>
		<path class="st0" d="M58.58,207.19v27.69H38.37v-51.27l18.71-22.08H39.5c-2.05,0-5.17-15.4-6.36-17.96h49.03
			c1.27,0,8.2,2.89,9.75,3.72c21.44,11.58,20.96,45.32-0.63,56.29c-1.57,0.8-8.64,3.6-9.87,3.6L58.58,207.19L58.58,207.19z
			 M57.84,189.23h19.83c0.28,0,4.27-2.25,4.82-2.67c7.34-5.54,6.91-17.33-0.33-22.78c-0.55-0.42-3.52-2.25-3.74-2.25H57.84V189.23z"
			/>
		<path class="st0" d="M320.55,207.19c4.89,15.7,23.18,15.72,34.05,5.96c1.12-0.01,10.88,9.66,10.88,10.88
			c0,3.66-11.81,9.44-15.03,10.45c-30.17,9.43-57.57-15.62-47.14-46.4c10.23-30.19,55.54-30.8,64.93,0.24
			c0.33,1.08,1.71,5.95,1.71,6.52v11.23c0,0.08-1.04,1.12-1.12,1.12L320.55,207.19L320.55,207.19z M351.24,193.72
			c-2.97-17.14-27.74-17.13-30.69,0H351.24z"/>
		<path class="st0" d="M534.61,234.89h-19.46v-41.54c0-0.4-1.46-4.23-1.82-4.91c-3.66-6.83-13.14-7.19-19.27-3.65
			c-2.5,1.44-5.85,8.7-5.85,11.56v38.55h-19.46v-68.11h19.46c0.37,0-0.28,6.61,0.01,7.48c13.45-14.75,39.71-11.14,45.13,9.13
			c0.25,0.95,1.27,4.99,1.27,5.46v46.03H534.61z"/>
		<path class="st0" d="M461.53,197.26c0,23.71-19.22,42.94-42.94,42.94s-42.94-19.22-42.94-42.94s19.22-42.94,42.94-42.94
			S461.53,173.55,461.53,197.26z M453.09,197.23c0-19.06-15.45-34.51-34.51-34.51s-34.51,15.45-34.51,34.51s15.45,34.51,34.51,34.51
			C437.64,231.73,453.09,216.28,453.09,197.23z"/>
		<rect x="115.47" y="166.78" class="st0" width="19.46" height="68.11"/>
		<circle class="st0" cx="125.16" cy="149" r="11.27"/>
		<path class="st1" d="M453.09,197.23c0,19.06-15.45,34.51-34.51,34.51s-34.51-15.45-34.51-34.51s15.45-34.51,34.51-34.51
			C437.64,162.72,453.09,178.17,453.09,197.23z M416.36,169.02c-12.05-0.57-25.58,12.48-26.21,24.33c-0.08,1.57-0.01,0.96,1.11,1.12
			c3.05,0.43,7.94-0.97,6.27,4.01c-0.97,2.9-7.54-0.42-7.39,2.35c0.69,12.82,13.69,24.16,26.2,25.08c-1.84-3.74,2.56-12.17,4.34-6.2
			c0.58,1.95-0.91,6.33,1.27,6.21c12.37-0.67,24.66-13.85,25.08-26.2c-10.61,1.44-10.42-6.26,0.01-5.63
			c-1.63-13.24-12.31-25.04-26.21-25.07C422.4,179.39,414.79,179.38,416.36,169.02z"/>
		<path class="st0" d="M437.31,178.76c2.43,2.44-11.31,14.08-12.76,16.8c-1.33,2.51-0.72,6.25-5.01,7.03c-5.47,1-5.46-4.2-6.88-7.05
			c-1.29-2.59-11.36-10.04-7.59-12.71c4.03-2.85,8.74,9.69,14.61,8.66C423.27,190.86,434.55,175.99,437.31,178.76z"/>
	</g>
</g>
</svg>

