<?xml version="1.0" encoding="utf-8"?>
<!-- Generator: Adobe Illustrator 30.0.0, SVG Export Plug-In . SVG Version: 9.03 Build 0)  -->
<svg version="1.0" id="Livello_1" xmlns="http://www.w3.org/2000/svg" xmlns:xlink="http://www.w3.org/1999/xlink" x="0px" y="0px"
	 viewBox="0 0 176.96 168.89" style="enable-background:new 0 0 176.96 168.89;" xml:space="preserve">
<style type="text/css">
	.st0{fill:#5A5DDC;}
</style>
<g>
	<g>
		<path class="st0" d="M163.24,72.79v44.07c0,1.77-3.78,5.18-5.86,4.84l-70.82-0.01c-3.47-0.26-6.67-2.31-8.64-5.12
			c-0.43-0.61-2.33-4.4-2.33-4.81V72.78c1.06-0.1,1.8,0.68,2.56,1.26c11.61,8.9,22.53,22.74,34.4,31.33
			c4.24,3.07,7.98,3.54,12.73,1.03c7.71-6.89,15.56-13.65,23.19-20.63c3.78-3.46,8.35-8.77,12.21-11.74
			C161.44,73.47,162.18,72.69,163.24,72.79z"/>
		<path class="st0" d="M159.16,64.13c0.11,1.1-0.31,2-1.01,2.81c-2.4,2.76-7.11,6.19-9.96,8.89c-8.56,8.12-16.9,16.33-25.69,24.18
			c-3.4-0.26-4.37,0.94-7.41-1.24c-5.33-3.83-12.96-11.77-18.1-16.55c-4.73-4.4-12.4-10.68-16.31-15.28
			c-0.69-0.81-1.6-1.64-1.52-2.81C79.16,64.13,159.16,64.13,159.16,64.13z"/>
	</g>
</g>
<path class="st0" d="M66.68,153.3c3.1,0.66,3.68,5.41-1.07,6.07c-5.55,0.77-23.37,0.73-29.01,0.06c-0.9-0.11-3.13-0.82-3.56-1.53
	c-0.61-1-0.35-3.73,0.89-4.25c3.35-1.42,12.57,0.91,15.54-1.5c1.66-1.34,6.79-12.19,6.28-14.29c-18.1-7.47-35.73-18.09-41.55-38.05
	c-5.47-18.79,2.14-34.86,5.7-52.89c1.89-9.58,1.62-18.75,6.87-27.26C37.87,1.67,65.39,0.97,76,19.67c1.56,2.75,2.31,6.38,3.95,8.78
	c2.06,3.01,12.32,10.71,12.46,13.07c0.23,4-8.21,2.54-10.9,2.82c-8.97,0.92-13.44,8.64-14.09,16.99c-1.2,15.42,0.95,32.35,0,47.93
	c1.15,13.5,10.5,18.13,21.95,21.87l18.34,20.38c1.06,2.84,1.1,3.98-2.08,3.1c-7.74-2.13-17.84-11.09-25.83-13.91
	c-3.72,0.31-11.86-1.15-14.88,0.68c-1.59,0.96-6.32,8.55-6.58,10.27c-0.1,0.64,0.16,1.67,0.68,1.67
	C61.08,153.3,64.98,152.94,66.68,153.3z M64.46,31.4c0-3.87-3.14-7.01-7.01-7.01s-7.01,3.14-7.01,7.01s3.14,7.01,7.01,7.01
	S64.46,35.27,64.46,31.4z"/>
</svg>
